REM DIRINDEX 1\5,1\2\6,1\2\7,1\3\8,1\3\9,1\4\10,1\4\11,1\4\12
REM DIRNAME cjc026,folder01,folder02,folder03,folder04,folder05,folder06,folder07,folder08,folder09,folder10,folder11
TITLE ""
FILE "EJE_DB3000_5th_2A_55.mp3" MP3
  TRACK 01 AUDIO
    TITLE "0:"
    INDEX 01 00:00:00
  TRACK 02 AUDIO
    TITLE "10:cjc026_08361"
    INDEX 01 00:00:08
  TRACK 03 AUDIO
    TITLE "0:"
    INDEX 01 00:01:27
  TRACK 04 AUDIO
    TITLE "11:cjc026_08362"
    INDEX 01 00:01:62
  TRACK 05 AUDIO
    TITLE "0:"
    INDEX 01 00:03:04
  TRACK 06 AUDIO
    TITLE "12:cjc026_08363"
    INDEX 01 00:03:42
  TRACK 07 AUDIO
    TITLE "0:"
    INDEX 01 00:04:61
  TRACK 08 AUDIO
    TITLE "10:cjc026_08364"
    INDEX 01 00:05:21
  TRACK 09 AUDIO
    TITLE "0:"
    INDEX 01 00:06:44
  TRACK 10 AUDIO
    TITLE "11:cjc026_08365"
    INDEX 01 00:07:06
  TRACK 11 AUDIO
    TITLE "0:"
    INDEX 01 00:08:58
  TRACK 12 AUDIO
    TITLE "12:cjc026_08366"
    INDEX 01 00:09:21
  TRACK 13 AUDIO
    TITLE "0:"
    INDEX 01 00:10:43
  TRACK 14 AUDIO
    TITLE "10:cjc026_08367"
    INDEX 01 00:11:03
  TRACK 15 AUDIO
    TITLE "0:"
    INDEX 01 00:12:20
  TRACK 16 AUDIO
    TITLE "11:cjc026_08368"
    INDEX 01 00:12:63
  TRACK 17 AUDIO
    TITLE "0:"
    INDEX 01 00:14:51
  TRACK 18 AUDIO
    TITLE "12:cjc026_08369"
    INDEX 01 00:15:11
  TRACK 19 AUDIO
    TITLE "0:"
    INDEX 01 00:16:28
  TRACK 20 AUDIO
    TITLE "10:cjc026_08370"
    INDEX 01 00:16:74
  TRACK 21 AUDIO
    TITLE "0:"
    INDEX 01 00:18:18
  TRACK 22 AUDIO
    TITLE "11:cjc026_08371"
    INDEX 01 00:18:62
  TRACK 23 AUDIO
    TITLE "0:"
    INDEX 01 00:20:30
  TRACK 24 AUDIO
    TITLE "12:cjc026_08372"
    INDEX 01 00:20:66
  TRACK 25 AUDIO
    TITLE "0:"
    INDEX 01 00:22:13
  TRACK 26 AUDIO
    TITLE "10:cjc026_08373"
    INDEX 01 00:22:53
  TRACK 27 AUDIO
    TITLE "0:"
    INDEX 01 00:23:73
  TRACK 28 AUDIO
    TITLE "11:cjc026_08374"
    INDEX 01 00:24:33
  TRACK 29 AUDIO
    TITLE "0:"
    INDEX 01 00:25:58
  TRACK 30 AUDIO
    TITLE "12:cjc026_08375"
    INDEX 01 00:26:21
  TRACK 31 AUDIO
    TITLE "0:"
    INDEX 01 00:27:40
  TRACK 32 AUDIO
    TITLE "10:cjc026_08376"
    INDEX 01 00:28:00
  TRACK 33 AUDIO
    TITLE "0:"
    INDEX 01 00:29:28
  TRACK 34 AUDIO
    TITLE "11:cjc026_08377"
    INDEX 01 00:29:63
  TRACK 35 AUDIO
    TITLE "0:"
    INDEX 01 00:31:10
  TRACK 36 AUDIO
    TITLE "12:cjc026_08378"
    INDEX 01 00:31:45
  TRACK 37 AUDIO
    TITLE "0:"
    INDEX 01 00:32:73
  TRACK 38 AUDIO
    TITLE "10:cjc026_08379"
    INDEX 01 00:33:35
  TRACK 39 AUDIO
    TITLE "0:"
    INDEX 01 00:34:58
  TRACK 40 AUDIO
    TITLE "11:cjc026_08380"
    INDEX 01 00:35:18
  TRACK 41 AUDIO
    TITLE "0:"
    INDEX 01 00:36:37
  TRACK 42 AUDIO
    TITLE "12:cjc026_08381"
    INDEX 01 00:36:72
  TRACK 43 AUDIO
    TITLE "0:"
    INDEX 01 00:38:22
  TRACK 44 AUDIO
    TITLE "10:cjc026_08382"
    INDEX 01 00:38:57
  TRACK 45 AUDIO
    TITLE "0:"
    INDEX 01 00:40:02
  TRACK 46 AUDIO
    TITLE "11:cjc026_08383"
    INDEX 01 00:40:40
  TRACK 47 AUDIO
    TITLE "0:"
    INDEX 01 00:41:62
  TRACK 48 AUDIO
    TITLE "12:cjc026_08384"
    INDEX 01 00:42:22
  TRACK 49 AUDIO
    TITLE "0:"
    INDEX 01 00:43:42
  TRACK 50 AUDIO
    TITLE "10:cjc026_08385"
    INDEX 01 00:44:02
  TRACK 51 AUDIO
    TITLE "0:"
    INDEX 01 00:45:35
  TRACK 52 AUDIO
    TITLE "11:cjc026_08386"
    INDEX 01 00:45:72
  TRACK 53 AUDIO
    TITLE "0:"
    INDEX 01 00:47:14
  TRACK 54 AUDIO
    TITLE "12:cjc026_08387"
    INDEX 01 00:47:49
  TRACK 55 AUDIO
    TITLE "0:"
    INDEX 01 00:49:07
  TRACK 56 AUDIO
    TITLE "10:cjc026_08388"
    INDEX 01 00:49:42
  TRACK 57 AUDIO
    TITLE "0:"
    INDEX 01 00:50:43
  TRACK 58 AUDIO
    TITLE "11:cjc026_08389"
    INDEX 01 00:51:11
  TRACK 59 AUDIO
    TITLE "0:"
    INDEX 01 00:52:28
  TRACK 60 AUDIO
    TITLE "12:cjc026_08390"
    INDEX 01 00:52:63
  TRACK 61 AUDIO
    TITLE "0:"
    INDEX 01 00:53:64
  TRACK 62 AUDIO
    TITLE "10:cjc026_08391"
    INDEX 01 00:54:35
  TRACK 63 AUDIO
    TITLE "0:"
    INDEX 01 00:55:57
  TRACK 64 AUDIO
    TITLE "11:cjc026_08392"
    INDEX 01 00:56:17
  TRACK 65 AUDIO
    TITLE "0:"
    INDEX 01 00:57:39
  TRACK 66 AUDIO
    TITLE "12:cjc026_08393"
    INDEX 01 00:58:02
  TRACK 67 AUDIO
    TITLE "0:"
    INDEX 01 00:59:27
  TRACK 68 AUDIO
    TITLE "10:cjc026_08394"
    INDEX 01 00:59:62
  TRACK 69 AUDIO
    TITLE "0:"
    INDEX 01 01:00:73
  TRACK 70 AUDIO
    TITLE "11:cjc026_08395"
    INDEX 01 01:01:36
  TRACK 71 AUDIO
    TITLE "0:"
    INDEX 01 01:02:64
  TRACK 72 AUDIO
    TITLE "12:cjc026_08396"
    INDEX 01 01:03:27
  TRACK 73 AUDIO
    TITLE "0:"
    INDEX 01 01:04:38
